<mxfile host="app.diagrams.net" modified="2024-05-10T09:10:23.918Z" agent="Mozilla/5.0 (X11; Ubuntu; Linux x86_64; rv:125.0) Gecko/20100101 Firefox/125.0" version="24.3.1" etag="gSB9dZ1hXHnEBA3jxh9z" type="github">
  <diagram name="Page-1" id="MEILKyyTFQwK6luVTU2M">
    <mxGraphModel>
      <root>
        <mxCell id="0" />
        <mxCell id="1" parent="0" />
      </root>
    </mxGraphModel>
  </diagram>
</mxfile>
